# Blender 5.1.0
# www.blender.org
mtllib heliwing.mtl
o Cube.007
v 0.514160 0.135701 2.192463
v 0.585838 0.064023 2.192463
v 0.585838 0.064023 2.381239
v 0.514160 0.135701 2.381239
v 0.585838 -0.064023 2.192463
v 0.514160 -0.135701 2.192463
v 0.514160 -0.135702 2.381239
v 0.585838 -0.064023 2.381239
v 0.314435 0.064023 2.192463
v 0.386113 0.135702 2.192463
v 0.386113 0.135701 2.381239
v 0.314435 0.064023 2.381239
v 0.386113 -0.135701 2.192463
v 0.314435 -0.064023 2.192463
v 0.314435 -0.064023 2.381239
v 0.386113 -0.135701 2.381239
v -0.482041 0.451961 2.337195
v -0.482041 0.451961 2.346438
v -0.001824 -0.932178 2.337195
v -0.001824 -0.932178 2.346438
v 1.382315 -0.451961 2.337195
v 1.382315 -0.451961 2.346438
v 0.902098 0.932178 2.337195
v 0.902098 0.932178 2.346438
v -4.113889 4.083808 2.346439
v -4.113889 4.083808 2.337196
v -3.633672 -4.564025 2.346438
v -3.633672 -4.564025 2.337195
v 5.014162 -4.083808 2.346438
v 5.014162 -4.083808 2.337195
v 4.533945 4.564025 2.346439
v 4.533945 4.564025 2.337196
v 4.823939 4.274032 2.328318
v 4.724168 4.373802 2.328318
v 4.724168 4.373802 2.355316
v 4.823939 4.274032 2.355316
v 4.823939 -4.274032 2.355316
v 4.724168 -4.373802 2.355316
v 4.724168 -4.373802 2.328317
v 4.823939 -4.274032 2.328317
v -3.823895 -4.373802 2.355316
v -3.923666 -4.274032 2.355316
v -3.923666 -4.274032 2.328317
v -3.823895 -4.373802 2.328317
v -3.923666 4.274032 2.355316
v -3.823895 4.373802 2.355316
v -3.823895 4.373802 2.328318
v -3.923666 4.274032 2.328318
v 1.192091 0.642184 2.328318
v 0.990113 0.440205 2.298039
v 0.890342 0.539976 2.298039
v 1.092321 0.741955 2.328318
v 0.890298 0.539932 2.353065
v 1.092321 0.741955 2.355316
v 0.990069 0.440162 2.353065
v 1.192091 0.642184 2.355316
v 1.192091 -0.642184 2.355316
v 0.990069 -0.440162 2.353065
v 0.890298 -0.539932 2.353065
v 1.092321 -0.741955 2.355316
v 0.890342 -0.539976 2.298039
v 1.092321 -0.741955 2.328317
v 0.990113 -0.440205 2.298039
v 1.192091 -0.642184 2.328317
v -0.192048 -0.741955 2.355316
v 0.009975 -0.539932 2.353065
v -0.089795 -0.440162 2.353065
v -0.291818 -0.642184 2.355316
v -0.089839 -0.440205 2.298039
v -0.291818 -0.642184 2.328317
v 0.009931 -0.539976 2.298039
v -0.192048 -0.741955 2.328317
v -0.291818 0.642184 2.355316
v -0.089795 0.440162 2.353065
v 0.009975 0.539932 2.353065
v -0.192047 0.741955 2.355316
v 0.009931 0.539976 2.298039
v -0.192047 0.741955 2.328318
v -0.089839 0.440205 2.298039
v -0.291818 0.642184 2.328318
v 0.304272 0.057794 2.174252
v 0.392343 0.145865 2.174252
v 0.394288 0.144897 2.398948
v 0.305239 0.055848 2.398948
v 0.392343 -0.145865 2.174252
v 0.304272 -0.057794 2.174252
v 0.305239 -0.055848 2.398948
v 0.394288 -0.144897 2.398948
v 0.596002 -0.057794 2.174252
v 0.507931 -0.145865 2.174252
v 0.505985 -0.144898 2.398948
v 0.595034 -0.055848 2.398948
v 0.595034 0.055848 2.398948
v 0.505985 0.144897 2.398948
v 0.507931 0.145865 2.174252
v 0.596002 0.057794 2.174252
v 1.005569 0.429544 2.282090
v 0.879681 0.555433 2.282090
v 0.878445 0.553156 2.370140
v 1.003292 0.428308 2.370140
v 1.003292 -0.428308 2.370140
v 0.878445 -0.553156 2.370140
v 0.879681 -0.555433 2.282090
v 1.005569 -0.429544 2.282090
v 0.021828 -0.553156 2.370140
v -0.103019 -0.428308 2.370140
v -0.105296 -0.429544 2.282090
v 0.020592 -0.555433 2.282090
v -0.103019 0.428308 2.370140
v 0.021828 0.553156 2.370140
v 0.020592 0.555433 2.282090
v -0.105296 0.429544 2.282090
v 0.265536 0.155899 2.228172
v 0.294238 0.184889 2.228172
v 0.294238 -0.184600 2.228172
v 0.265247 -0.155899 2.228172
v 0.635026 -0.155899 2.228172
v 0.606035 -0.184600 2.228172
v 0.606035 0.184889 2.228172
v 0.634737 0.155899 2.228172
v 0.663728 0.184600 2.228172
v 0.635026 0.213591 2.228172
v 0.634737 -0.213591 2.228172
v 0.663728 -0.184889 2.228172
v 0.236546 -0.184889 2.228172
v 0.265536 -0.213591 2.228172
v 0.265247 0.213591 2.228172
v 0.236546 0.184600 2.228172
v 0.655177 -0.205244 2.228172
v 0.655381 0.205040 2.228172
v 0.285891 0.164450 2.228172
v 0.285687 -0.164245 2.228172
v 0.614586 -0.164245 2.228172
v 0.614382 0.164450 2.228172
v 0.245097 -0.205244 2.228172
v 0.244893 0.205040 2.228172
v 0.655177 0.164245 2.228172
v 0.614586 0.205244 2.228172
v 0.655381 -0.164450 2.228172
v 0.614382 -0.205040 2.228172
v 0.285891 -0.205040 2.228172
v 0.244892 -0.164450 2.228172
v 0.245097 0.164245 2.228172
v 0.285687 0.205244 2.228172
v 0.634881 0.184745 2.228172
v 0.265392 -0.184745 2.228172
v 0.634881 -0.184745 2.228172
v 0.265392 0.184745 2.228172
v 0.627353 -0.177393 1.676802
v 0.634743 -0.159800 1.676802
v 0.627529 0.177216 1.676802
v 0.609937 0.184607 1.676802
v 0.308179 0.142134 1.676802
v 0.290587 0.134743 1.676802
v 0.308003 -0.141957 1.676802
v 0.315393 -0.159550 1.676802
v 0.592271 -0.141957 1.676802
v 0.609937 -0.134743 1.676802
v 0.592094 0.142134 1.676802
v 0.584880 0.159800 1.676802
v 0.272921 -0.177393 1.676802
v 0.290587 -0.184607 1.676802
v 0.272744 0.177216 1.676802
v 0.265530 0.159550 1.676802
v 0.627353 0.141957 1.676802
v 0.609687 0.134743 1.676802
v 0.592271 0.177393 1.676802
v 0.627529 -0.142134 1.676802
v 0.592094 -0.177216 1.676802
v 0.609687 -0.184607 1.676802
v 0.308179 -0.177216 1.676802
v 0.272744 -0.142134 1.676802
v 0.265530 -0.159800 1.676802
v 0.272921 0.141957 1.676802
v 0.308003 0.177393 1.676802
v 0.290337 0.184607 1.676802
v 0.634743 0.159550 1.676802
v 0.315393 0.159800 1.676802
v 0.290337 -0.134743 1.676802
v 0.584880 -0.159550 1.676802
v 0.609812 0.159675 1.676802
v 0.290462 -0.159675 1.676802
v 0.609812 -0.159675 1.676802
v 0.290462 0.159675 1.676802
v 0.500821 0.141227 2.192463
v 0.585838 0.064023 2.192463
v 0.591364 -0.050684 2.192462
v 0.514160 -0.135701 2.192462
v 0.308910 0.050684 2.192463
v 0.386113 0.135702 2.192463
v 0.399453 -0.141227 2.192462
v 0.314435 -0.064023 2.192462
v 0.585838 0.064023 2.070837
v 0.500821 0.141227 2.070837
v 0.514160 -0.135701 2.070837
v 0.591364 -0.050684 2.070837
v 0.314435 -0.064023 2.070837
v 0.399453 -0.141227 2.070837
v 0.386113 0.135702 2.070837
v 0.308910 0.050684 2.070837
v 0.629614 0.084677 2.070837
v 0.517171 0.186785 2.070837
v 0.534813 -0.179477 2.070837
v 0.636922 -0.067034 2.070837
v 0.270660 -0.084677 2.070837
v 0.383103 -0.186785 2.070837
v 0.365460 0.179477 2.070837
v 0.263352 0.067034 2.070837
v 0.629614 0.084677 2.014078
v 0.517171 0.186785 2.014078
v 0.534813 -0.179477 2.014078
v 0.636922 -0.067034 2.014078
v 0.270660 -0.084677 2.014078
v 0.383103 -0.186785 2.014078
v 0.365460 0.179477 2.014078
v 0.263352 0.067034 2.014078
v -2.297965 2.267885 2.337195
v -2.297965 2.267885 2.346439
v -2.107742 2.458108 2.355316
v -2.007971 2.557878 2.355316
v -2.107742 2.458108 2.328318
v -2.007971 2.557878 2.328318
v -1.817748 -2.748102 2.337195
v -1.817748 -2.748102 2.346438
v -2.007971 -2.557878 2.355316
v -2.107742 -2.458108 2.355316
v -2.007971 -2.557878 2.328317
v -2.107742 -2.458108 2.328317
v 3.198238 -2.267885 2.337195
v 3.198238 -2.267885 2.346438
v 3.008015 -2.458108 2.355316
v 2.908245 -2.557878 2.355316
v 3.008015 -2.458108 2.328317
v 2.908245 -2.557878 2.328317
v 2.718022 2.748102 2.346439
v 2.718022 2.748102 2.337195
v 3.008015 2.458108 2.355316
v 3.008015 2.458108 2.328318
v 2.908245 2.557878 2.328318
v 2.908245 2.557878 2.355316
vn -0.0000 1.0000 -0.0000
vn -1.0000 -0.0000 -0.0000
vn -0.0000 -0.0000 1.0000
vn 1.0000 -0.0000 -0.0000
vn -0.0000 -1.0000 -0.0000
vn -0.0000 -0.0000 -1.0000
vn 0.0233 0.0233 -0.9995
vn -0.6170 0.7868 0.0170
vn -0.7071 -0.7071 -0.0000
vn 0.7071 -0.7071 -0.0000
vn 0.6916 -0.6916 0.2080
vn -0.7071 0.7071 -0.0000
vn -0.0233 0.0233 -0.9995
vn 0.6990 0.6990 -0.1510
vn -0.6916 -0.6916 0.2080
vn 0.5970 0.8022 -0.0052
vn 0.7868 0.6170 0.0170
vn 0.7071 0.7071 -0.0000
vn 0.7065 0.7065 0.0407
vn -0.6916 0.6916 0.2080
vn 0.7868 -0.6170 0.0170
vn -0.5970 0.8022 -0.0052
vn -0.6170 -0.7868 0.0170
vn -0.6990 0.6990 -0.1510
vn 0.6916 0.6916 0.2080
vn -0.8022 0.5970 -0.0052
vn -0.7868 0.6170 0.0170
vn 0.0745 0.0745 -0.9944
vn -0.0056 -0.0056 1.0000
vn -0.0028 -0.0028 1.0000
vn -0.0056 0.0056 1.0000
vn -0.0028 0.0028 1.0000
vn 0.0745 -0.0745 -0.9944
vn 0.0056 0.0056 1.0000
vn 0.0028 0.0028 1.0000
vn -0.0745 -0.0745 -0.9944
vn 0.0056 -0.0056 1.0000
vn 0.0028 -0.0028 1.0000
vn -0.0745 0.0745 -0.9944
vn 0.7060 -0.7060 -0.0567
vn -0.0233 0.0233 0.9995
vn 0.0233 -0.0233 -0.9995
vn -0.0233 -0.0233 -0.9995
vn 0.0233 0.0233 0.9995
vn 0.0233 -0.0233 0.9995
vn -0.0233 -0.0233 0.9995
vn 0.0368 0.0368 0.9986
vn -0.6731 0.7396 -0.0005
vn -0.7396 0.6731 -0.0005
vn 0.7396 -0.6731 -0.0005
vn -0.0368 0.0368 0.9986
vn 0.0368 -0.0368 0.9986
vn -0.1355 0.1355 -0.9815
vn 0.1355 -0.1355 -0.9815
vn -0.0368 -0.0368 0.9986
vn 0.6731 -0.7396 -0.0005
vn -0.1355 -0.1355 -0.9815
vn 0.6731 0.7396 -0.0005
vn -0.6731 -0.7396 -0.0005
vn -0.7396 -0.6731 -0.0005
vn 0.7396 0.6731 -0.0005
vn 0.1355 0.1355 -0.9815
vn 0.8022 0.5970 -0.0052
vn 0.7065 -0.7065 0.0407
vn 0.7060 0.7060 -0.0567
vn -0.7868 -0.6170 0.0170
vn 0.8022 -0.5970 -0.0052
vn -0.6990 -0.6990 -0.1510
vn 0.6170 -0.7868 0.0170
vn 0.6990 -0.6990 -0.1510
vn -0.8022 -0.5970 -0.0052
vn 0.6170 0.7868 0.0170
vn 0.5970 -0.8022 -0.0052
vn -0.7060 0.7060 -0.0567
vn -0.7065 -0.7065 0.0407
vn -0.5970 -0.8022 -0.0052
vn -0.7060 -0.7060 -0.0567
vn -0.7065 0.7065 0.0407
vn 0.3772 -0.9238 -0.0657
vn 0.9207 0.3868 0.0529
vn -0.9215 -0.3871 -0.0309
vn 0.9238 0.3772 -0.0657
vn -0.3775 0.9245 0.0527
vn 0.9218 0.3872 0.0177
vn 0.9245 -0.3775 0.0527
vn -0.9245 -0.3775 0.0527
vn 0.3775 0.9245 0.0527
vn -0.3772 -0.9238 -0.0657
vn -0.9207 0.3868 0.0529
vn -0.9238 0.3772 -0.0657
vn -0.3868 -0.9207 0.0529
vn 0.3780 -0.9256 0.0183
vn -0.9199 -0.3865 -0.0659
vn -0.3779 0.9253 -0.0314
vn -0.3865 0.9199 -0.0659
vn 0.3872 0.9218 0.0177
vn 0.9215 -0.3871 -0.0309
vn -0.3871 -0.9215 -0.0309
vn -0.9218 0.3872 0.0177
vn 0.9256 -0.3780 0.0183
vn 0.9253 0.3779 -0.0314
vn -0.9253 0.3779 -0.0314
vn 0.9199 -0.3865 -0.0659
vn -0.9256 -0.3780 0.0183
vn -0.3780 -0.9256 0.0183
vn 0.3865 0.9199 -0.0659
vn 0.3871 -0.9215 -0.0309
vn 0.3779 0.9253 -0.0314
vn 0.3868 -0.9207 0.0529
vn -0.3872 0.9218 0.0177
vn -0.7403 0.6723 -0.0000
vn 0.7403 -0.6723 -0.0000
vn -0.9988 -0.0481 -0.0000
vn 0.9988 0.0481 -0.0000
vn -0.6723 -0.7403 -0.0000
vn 0.6723 0.7403 -0.0000
vn -0.0481 0.9988 -0.0000
vn 0.0481 -0.9988 -0.0000
vt 0.409349 0.972884
vt 0.409183 0.973831
vt 0.408347 0.972708
vt 0.408181 0.973655
vt 0.408823 0.973768
vt 0.408990 0.972821
vt 0.407821 0.973592
vt 0.407988 0.972645
vt 0.396195 0.971415
vt 0.395694 0.971327
vt 0.386585 0.969726
vt 0.387086 0.969814
vt 0.396218 0.971280
vt 0.395718 0.971192
vt 0.386609 0.969591
vt 0.387109 0.969679
vt 0.421356 0.975836
vt 0.420855 0.975748
vt 0.429964 0.977349
vt 0.430465 0.977437
vt 0.405327 0.972880
vt 0.406274 0.973092
vt 0.397165 0.971492
vt 0.410735 0.973958
vt 0.410784 0.973682
vt 0.410744 0.973593
vt 0.410660 0.974034
vt 0.394756 0.971068
vt 0.394748 0.971115
vt 0.385639 0.969514
vt 0.385647 0.969468
vt 0.406367 0.972906
vt 0.405867 0.972818
vt 0.405803 0.972725
vt 0.406435 0.972836
vt 0.405304 0.973016
vt 0.406266 0.973139
vt 0.421380 0.975701
vt 0.412271 0.974100
vt 0.413217 0.974312
vt 0.422326 0.975913
vt 0.407953 0.972545
vt 0.408395 0.972622
vt 0.420879 0.975613
vt 0.429988 0.977214
vt 0.430489 0.977301
vt 0.408206 0.973751
vt 0.411235 0.974046
vt 0.411284 0.973770
vt 0.411376 0.973704
vt 0.411287 0.974144
vt 0.407760 0.973673
vt 0.405819 0.973094
vt 0.405737 0.973168
vt 0.406319 0.973182
vt 0.406363 0.973278
vt 0.411770 0.974012
vt 0.412247 0.974236
vt 0.411746 0.974148
vt 0.404803 0.972928
vt 0.404827 0.972792
vt 0.422318 0.975959
vt 0.431427 0.977560
vt 0.431435 0.977514
vt 0.397157 0.971538
vt 0.388048 0.969937
vt 0.388056 0.969891
vt 0.419917 0.975490
vt 0.419909 0.975536
vt 0.429018 0.977137
vt 0.429026 0.977090
vt 0.403865 0.972669
vt 0.410800 0.973936
vt 0.410808 0.973889
vt 0.403857 0.972715
vt 0.413209 0.974359
vt 0.409213 0.973928
vt 0.408767 0.973850
vt 0.409416 0.972802
vt 0.408974 0.972724
vt 0.409564 0.973107
vt 0.409666 0.973125
vt 0.409563 0.973107
vt 0.409461 0.973089
vt 0.407710 0.972781
vt 0.407608 0.972763
vt 0.407710 0.972781
vt 0.407812 0.972799
vt 0.407566 0.972756
vt 0.407609 0.972763
vt 0.409708 0.973132
vt 0.409667 0.973125
vt 0.409419 0.973081
vt 0.409462 0.973089
vt 0.409564 0.973107
vt 0.407855 0.972806
vt 0.407813 0.972799
vt 0.407711 0.972781
vt 0.409924 0.970319
vt 0.409835 0.970303
vt 0.409923 0.970319
vt 0.410012 0.970334
vt 0.408322 0.970037
vt 0.408410 0.970053
vt 0.408321 0.970037
vt 0.408233 0.970022
vt 0.408234 0.970022
vt 0.408197 0.970015
vt 0.410013 0.970334
vt 0.410049 0.970341
vt 0.409799 0.970297
vt 0.409836 0.970303
vt 0.409925 0.970319
vt 0.408447 0.970059
vt 0.408411 0.970053
vt 0.408323 0.970037
vt 0.408414 0.972720
vt 0.409377 0.972889
vt 0.408923 0.972809
vt 0.407960 0.972640
vt 0.408522 0.972110
vt 0.408095 0.972035
vt 0.408067 0.972030
vt 0.408455 0.972098
vt 0.409030 0.972199
vt 0.409456 0.972274
vt 0.409484 0.972279
vt 0.409097 0.972211
vt 0.408440 0.972095
vt 0.409201 0.972229
vt 0.409713 0.972319
vt 0.409676 0.972313
vt 0.409112 0.972214
vt 0.408351 0.972080
vt 0.407839 0.971990
vt 0.407875 0.971996
vt 0.408490 0.971811
vt 0.407925 0.971712
vt 0.407889 0.971705
vt 0.408401 0.971795
vt 0.409162 0.971929
vt 0.409726 0.972028
vt 0.409763 0.972035
vt 0.409251 0.971945
s 1
usemtl Material.001
f 10/1/1 11/2/1 4/2/1 1/1/1
f 14/3/2 15/4/2 12/5/2 9/6/2
f 15/4/3 16/7/3 7/7/3 8/4/3 3/5/3 4/2/3 11/2/3 12/5/3
f 2/6/4 3/5/4 8/4/4 5/3/4
f 6/8/5 7/7/5 16/7/5 13/8/5
f 231/9/3 232/10/3 38/11/3 37/12/3
f 228/13/6 227/14/6 44/15/6 43/16/6
f 240/17/3 237/18/3 36/19/3 35/20/3
f 233/13/7 64/21/7 21/22/7 229/23/7
f 5/3/6 6/8/6 13/8/6 14/3/6 9/6/6 10/1/6 1/1/6 2/6/6
f 74/24/8 79/25/8 112/26/8 109/27/8
f 232/10/9 234/14/9 39/15/9 38/11/9
f 223/28/10 224/29/10 27/30/10 28/31/10
f 225/10/3 226/9/3 42/12/3 41/11/3
f 219/18/3 220/17/3 46/20/3 45/19/3
f 41/11/9 44/15/9 28/31/9 27/30/9
f 63/32/11 61/33/11 103/34/11 104/35/11
f 64/21/12 57/36/12 22/37/12 21/22/12
f 239/38/13 52/39/13 23/40/13 236/41/13
f 14/3/14 13/8/14 85/42/14 86/43/14
f 71/33/15 69/32/15 107/35/15 108/34/15
f 234/14/6 233/13/6 40/16/6 39/15/6
f 222/38/6 221/44/6 48/45/6 47/46/6
f 15/4/16 14/3/16 86/43/16 87/47/16
f 237/18/10 238/44/10 33/45/10 36/19/10
f 53/48/17 51/49/17 98/50/17 99/51/17
f 34/46/18 35/20/18 36/19/18 33/45/18
f 38/11/10 39/15/10 40/16/10 37/12/10
f 42/12/9 43/16/9 44/15/9 41/11/9
f 46/20/12 47/46/12 48/45/12 45/19/12
f 220/17/18 222/38/18 47/46/18 46/20/18
f 16/7/19 15/4/19 87/47/19 88/52/19
f 79/25/20 77/49/20 111/50/20 112/26/20
f 61/33/21 59/53/21 102/54/21 103/34/21
f 5/3/22 8/4/22 92/47/22 89/43/22
f 69/32/23 67/55/23 106/56/23 107/35/23
f 238/44/6 239/38/6 34/46/6 33/45/6
f 226/9/12 228/13/12 43/16/12 42/12/12
f 6/8/24 5/3/24 89/43/24 90/42/24
f 51/49/25 50/25/25 97/26/25 98/50/25
f 7/7/26 6/8/26 90/42/26 91/52/26
f 77/49/27 75/48/27 110/51/27 111/50/27
f 50/25/28 51/49/28 52/39/28 49/57/28
f 51/49/12 53/48/12 54/58/12 52/39/12
f 53/48/29 55/24/29 56/59/30 54/58/30
f 55/24/10 50/25/10 49/57/10 56/59/10
f 58/55/31 59/53/31 60/60/32 57/36/32
f 59/53/9 61/33/9 62/61/9 60/60/9
f 61/33/33 63/32/33 64/21/33 62/61/33
f 63/32/18 58/55/18 57/36/18 64/21/18
f 66/53/34 67/55/34 68/36/35 65/60/35
f 67/55/12 69/32/12 70/21/12 68/36/12
f 69/32/36 71/33/36 72/61/36 70/21/36
f 71/33/10 66/53/10 65/60/10 72/61/10
f 74/24/37 75/48/37 76/58/38 73/59/38
f 75/48/18 77/49/18 78/39/18 76/58/18
f 77/49/39 79/25/39 80/57/39 78/39/39
f 79/25/9 74/24/9 73/59/9 80/57/9
f 59/53/40 58/55/40 101/56/40 102/54/40
f 236/41/12 235/62/12 31/63/12 32/64/12
f 229/23/18 230/65/18 29/66/18 30/67/18
f 217/68/9 218/69/9 25/70/9 26/71/9
f 240/17/41 35/20/41 31/63/41 235/62/41
f 227/14/42 72/61/42 19/72/42 223/28/42
f 80/57/10 73/59/10 18/73/10 17/74/10
f 221/44/43 80/57/43 17/74/43 217/68/43
f 231/9/44 37/12/44 29/66/44 230/65/44
f 37/12/10 40/16/10 30/67/10 29/66/10
f 225/10/45 41/11/45 27/30/45 224/29/45
f 45/19/12 48/45/12 26/71/12 25/70/12
f 219/18/46 45/19/46 25/70/46 218/69/46
f 72/61/18 65/60/18 20/75/18 19/72/18
f 35/20/18 34/46/18 32/64/18 31/63/18
f 52/39/9 54/58/9 24/76/9 23/40/9
f 94/77/47 93/78/47 100/27/47 99/51/47
f 87/47/48 86/43/48 107/35/48 106/56/48
f 95/79/49 94/77/49 99/51/49 98/50/49
f 85/42/50 88/52/50 105/54/50 108/34/50
f 84/78/51 83/77/51 110/51/51 109/27/51
f 92/47/52 91/52/52 102/54/52 101/56/52
f 82/79/53 81/80/53 112/26/53 111/50/53
f 90/42/54 89/43/54 104/35/54 103/34/54
f 88/52/55 87/47/55 106/56/55 105/54/55
f 93/78/56 96/80/56 97/26/56 100/27/56
f 86/43/57 85/42/57 108/34/57 107/35/57
f 89/43/58 92/47/58 101/56/58 104/35/58
f 81/80/59 84/78/59 109/27/59 112/26/59
f 91/52/60 90/42/60 103/34/60 102/54/60
f 83/77/61 82/79/61 111/50/61 110/51/61
f 96/80/62 95/79/62 98/50/62 97/26/62
f 13/8/63 16/7/63 88/52/63 85/42/63
f 12/5/64 11/2/64 83/77/64 84/78/64
f 55/24/65 53/48/65 99/51/65 100/27/65
f 66/53/66 71/33/66 108/34/66 105/54/66
f 11/2/67 10/1/67 82/79/67 83/77/67
f 2/6/68 1/1/68 95/79/68 96/80/68
f 58/55/69 63/32/69 104/35/69 101/56/69
f 10/1/70 9/6/70 81/80/70 82/79/70
f 1/1/71 4/2/71 94/77/71 95/79/71
f 50/25/72 55/24/72 100/27/72 97/26/72
f 9/6/73 12/5/73 84/78/73 81/80/73
f 75/48/74 74/24/74 109/27/74 110/51/74
f 4/2/75 3/5/75 93/78/75 94/77/75
f 3/5/76 2/6/76 96/80/76 93/78/76
f 67/55/77 66/53/77 105/54/77 106/56/77
f 8/4/78 7/7/78 91/52/78 92/47/78
f 148/81/3 136/82/3 128/83/3 143/84/3
f 147/85/3 129/86/3 124/87/3 139/88/3
f 146/85/3 135/86/3 126/89/3 141/90/3
f 145/81/3 130/82/3 122/91/3 138/92/3
f 137/84/3 121/83/3 130/82/3 145/81/3
f 120/93/3 137/84/3 145/81/3 134/94/3
f 134/94/3 145/81/3 138/92/3 119/95/3
f 142/88/3 125/87/3 135/86/3 146/85/3
f 116/96/3 142/88/3 146/85/3 132/97/3
f 132/97/3 146/85/3 141/90/3 115/98/3
f 140/90/3 123/89/3 129/86/3 147/85/3
f 118/98/3 140/90/3 147/85/3 133/97/3
f 133/97/3 147/85/3 139/88/3 117/96/3
f 144/92/3 127/91/3 136/82/3 148/81/3
f 114/95/3 144/92/3 148/81/3 131/94/3
f 131/94/3 148/81/3 143/84/3 113/93/3
f 184/99/6 174/100/6 164/101/6 163/102/6
f 183/103/6 168/104/6 150/105/6 149/106/6
f 182/103/6 171/107/6 162/108/6 161/106/6
f 181/99/6 167/109/6 152/110/6 151/102/6
f 165/100/6 181/99/6 151/102/6 177/101/6
f 166/111/6 159/112/6 181/99/6 165/100/6
f 159/112/6 160/113/6 167/109/6 181/99/6
f 172/104/6 182/103/6 161/106/6 173/105/6
f 179/114/6 155/115/6 182/103/6 172/104/6
f 155/115/6 156/116/6 171/107/6 182/103/6
f 169/107/6 183/103/6 149/106/6 170/108/6
f 180/116/6 157/115/6 183/103/6 169/107/6
f 157/115/6 158/114/6 168/104/6 183/103/6
f 175/109/6 184/99/6 163/102/6 176/110/6
f 178/113/6 153/112/6 184/99/6 175/109/6
f 153/112/6 154/111/6 174/100/6 184/99/6
f 129/86/79 123/89/79 170/108/79 149/106/79
f 132/97/80 115/98/80 156/116/80 155/115/80
f 143/84/81 128/83/81 164/101/81 174/100/81
f 130/82/82 121/83/82 177/101/82 151/102/82
f 133/97/83 117/96/83 158/114/83 157/115/83
f 144/92/84 114/95/84 178/113/84 175/109/84
f 114/95/85 131/94/85 153/112/85 178/113/85
f 134/94/86 119/95/86 160/113/86 159/112/86
f 116/96/87 132/97/87 155/115/87 179/114/87
f 126/89/88 135/86/88 161/106/88 162/108/88
f 118/98/89 133/97/89 157/115/89 180/116/89
f 128/83/90 136/82/90 163/102/90 164/101/90
f 120/93/91 134/94/91 159/112/91 166/111/91
f 137/84/92 120/93/92 166/111/92 165/100/92
f 135/86/93 125/87/93 173/105/93 161/106/93
f 138/92/94 122/91/94 152/110/94 167/109/94
f 136/82/95 127/91/95 176/110/95 163/102/95
f 117/96/96 139/88/96 168/104/96 158/114/96
f 121/83/97 137/84/97 165/100/97 177/101/97
f 123/89/98 140/90/98 169/107/98 170/108/98
f 119/95/99 138/92/99 167/109/99 160/113/99
f 115/98/100 141/90/100 171/107/100 156/116/100
f 139/88/101 124/87/101 150/105/101 168/104/101
f 125/87/102 142/88/102 172/104/102 173/105/102
f 124/87/103 129/86/103 149/106/103 150/105/103
f 140/90/104 118/98/104 180/116/104 169/107/104
f 113/93/105 143/84/105 174/100/105 154/111/105
f 122/91/106 130/82/106 151/102/106 152/110/106
f 141/90/107 126/89/107 162/108/107 171/107/107
f 127/91/108 144/92/108 175/109/108 176/110/108
f 131/94/109 113/93/109 154/111/109 153/112/109
f 142/88/110 116/96/110 179/114/110 172/104/110
f 187/117/3 186/6/3 185/118/3 190/1/3 189/119/3 192/3/3 191/120/3 188/8/3
f 196/121/6 195/122/6 198/123/6 197/124/6 200/125/6 199/126/6 194/127/6 193/128/6
f 189/119/111 190/1/111 199/126/111 200/125/111
f 187/117/112 188/8/112 195/122/112 196/121/112
f 192/3/113 189/119/113 200/125/113 197/124/113
f 186/6/114 187/117/114 196/121/114 193/128/114
f 191/120/115 192/3/115 197/124/115 198/123/115
f 185/118/116 186/6/116 193/128/116 194/127/116
f 190/1/117 185/118/117 194/127/117 199/126/117
f 188/8/118 191/120/118 198/123/118 195/122/118
f 204/129/3 201/130/3 202/131/3 207/132/3 208/133/3 205/134/3 206/135/3 203/136/3
f 212/137/6 211/138/6 214/139/6 213/140/6 216/141/6 215/142/6 210/143/6 209/144/6
f 204/129/112 203/136/112 211/138/112 212/137/112
f 205/134/113 208/133/113 216/141/113 213/140/113
f 201/130/114 204/129/114 212/137/114 209/144/114
f 206/135/115 205/134/115 213/140/115 214/139/115
f 202/131/116 201/130/116 209/144/116 210/143/116
f 207/132/117 202/131/117 210/143/117 215/142/117
f 203/136/118 206/135/118 214/139/118 211/138/118
f 208/133/111 207/132/111 215/142/111 216/141/111
f 73/59/46 219/18/46 218/69/46 18/73/46
f 48/45/43 221/44/43 217/68/43 26/71/43
f 17/74/9 18/73/9 218/69/9 217/68/9
f 76/58/18 78/39/18 222/38/18 220/17/18
f 78/39/6 80/57/6 221/44/6 222/38/6
f 73/59/38 76/58/38 220/17/3 219/18/3
f 65/60/45 225/10/45 224/29/45 20/75/45
f 44/15/42 227/14/42 223/28/42 28/31/42
f 68/36/12 70/21/12 228/13/12 226/9/12
f 65/60/35 68/36/35 226/9/3 225/10/3
f 19/72/10 20/75/10 224/29/10 223/28/10
f 70/21/6 72/61/6 227/14/6 228/13/6
f 57/36/44 231/9/44 230/65/44 22/37/44
f 21/22/18 22/37/18 230/65/18 229/23/18
f 62/61/6 64/21/6 233/13/6 234/14/6
f 60/60/9 62/61/9 234/14/9 232/10/9
f 40/16/7 233/13/7 229/23/7 30/67/7
f 57/36/32 60/60/32 232/10/3 231/9/3
f 54/58/41 240/17/41 235/62/41 24/76/41
f 23/40/12 24/76/12 235/62/12 236/41/12
f 49/57/6 52/39/6 239/38/6 238/44/6
f 56/59/10 49/57/10 238/44/10 237/18/10
f 34/46/13 239/38/13 236/41/13 32/64/13
f 54/58/30 56/59/30 237/18/3 240/17/3
